<?xml version="1.0" standalone="no"?>
<!DOCTYPE svg PUBLIC "-//W3C//DTD SVG 20010904//EN"
 "http://www.w3.org/TR/2001/REC-SVG-20010904/DTD/svg10.dtd">
<svg version="1.0" xmlns="http://www.w3.org/2000/svg"
 width="460.000000pt" height="543.000000pt" viewBox="0 0 460.000000 543.000000"
 preserveAspectRatio="xMidYMid meet">

<g transform="translate(0.000000,543.000000) scale(0.100000,-0.100000)"
fill="#008CFF" stroke="none">
<path d="M4110 5180 c-8 -5 -11 -10 -6 -10 5 0 -1 -8 -12 -19 -12 -10 -19 -20
-17 -23 3 -3 -6 -13 -20 -22 -14 -9 -23 -21 -20 -26 4 -6 1 -10 -4 -10 -6 0
-11 -4 -11 -10 0 -8 -18 -39 -58 -96 -7 -11 -9 -12 -5 -4 6 13 5 13 -11 1 -9
-8 -15 -20 -12 -28 3 -8 1 -11 -4 -8 -6 3 -13 -2 -17 -11 -3 -10 -15 -26 -25
-36 -10 -10 -16 -23 -13 -29 4 -5 2 -8 -3 -7 -8 3 -172 -214 -172 -227 0 -3
14 -5 30 -5 17 0 30 5 30 11 0 5 3 8 8 6 8 -5 127 14 518 84 40 8 61 16 61 25
0 8 -4 14 -8 14 -7 0 -22 39 -20 53 1 5 -2 6 -7 3 -5 -3 -14 6 -21 20 -6 14
-7 23 -1 19 6 -3 7 1 4 9 -3 9 -10 16 -16 16 -5 0 -7 4 -3 10 3 5 -3 18 -14
29 -11 11 -16 22 -13 26 4 4 -1 11 -11 16 -10 6 -16 18 -13 27 6 20 -11 45
-36 55 -10 3 -18 12 -18 19 0 9 3 9 10 -2 5 -8 12 -12 15 -8 3 3 -1 13 -10 21
-9 9 -16 20 -15 24 0 18 -12 43 -21 43 -6 0 -7 5 -4 10 3 6 1 10 -5 10 -6 0
-8 5 -5 10 3 6 1 10 -5 10 -6 0 -8 5 -5 10 8 12 4 12 -15 0z"/>
<path d="M412 5153 c-6 -2 -10 -9 -6 -14 3 -5 0 -9 -5 -9 -6 0 -10 -3 -9 -7 1
-5 -6 -22 -15 -40 -9 -18 -17 -39 -17 -47 0 -8 -5 -16 -10 -18 -6 -2 -12 -14
-15 -26 -8 -44 -16 -62 -26 -57 -5 3 -6 0 -3 -8 3 -8 -2 -20 -10 -27 -9 -7
-13 -16 -10 -21 3 -5 1 -9 -4 -9 -6 0 -13 -7 -16 -16 -3 -8 -2 -12 4 -9 6 3 7
-1 4 -9 -3 -9 -10 -13 -15 -10 -8 5 -13 -9 -10 -28 0 -5 -3 -8 -8 -8 -9 0 -31
-53 -31 -74 0 -7 35 -17 83 -24 45 -7 143 -24 217 -37 74 -13 164 -29 200 -35
36 -6 75 -13 88 -16 27 -5 29 12 2 26 -11 6 -20 18 -20 28 -1 9 -12 31 -26 47
-27 31 -23 15 5 -20 15 -19 15 -19 -2 -6 -24 19 -48 66 -39 76 4 5 2 5 -5 1
-6 -3 -14 -2 -18 4 -4 6 -11 7 -17 4 -7 -4 -8 -2 -4 4 4 6 1 22 -6 34 -7 13
-11 26 -10 31 1 4 -3 7 -8 7 -5 0 -9 4 -7 8 1 5 -11 21 -28 36 -16 16 -21 22
-10 15 19 -13 19 -13 6 4 -8 10 -22 16 -31 14 -12 -3 -16 3 -15 22 0 15 -10
35 -22 46 -12 11 -24 27 -25 35 -2 8 -12 22 -23 32 -11 9 -16 17 -11 18 5 0 3
7 -4 15 -7 8 -17 12 -22 9 -5 -3 -8 1 -6 9 2 9 -6 23 -17 32 -11 9 -14 13 -6
9 9 -5 12 -3 7 4 -4 7 -8 12 -9 11 -1 0 -8 -3 -15 -6z"/>
<path d="M3849 5063 c-13 -17 -13 -17 6 -3 11 8 22 16 24 17 2 2 0 3 -6 3 -6
0 -17 -8 -24 -17z"/>
<path d="M3782 5015 c-18 -12 -30 -24 -27 -27 3 -2 -1 -5 -8 -5 -19 0 -127
-75 -121 -84 3 -5 -2 -6 -10 -3 -9 3 -16 1 -16 -5 0 -6 -7 -11 -15 -11 -7 0
-19 -8 -24 -17 -6 -10 -11 -13 -11 -8 0 6 -10 -1 -21 -15 -11 -14 -18 -18 -14
-10 4 8 -3 4 -15 -10 -12 -14 -19 -18 -15 -10 4 10 2 9 -8 -2 -8 -10 -16 -15
-19 -13 -3 3 -13 -6 -22 -19 -16 -25 -66 -60 -52 -37 15 23 -13 10 -28 -14 -9
-14 -25 -25 -37 -25 -11 0 -22 -7 -25 -15 -4 -8 -12 -15 -20 -15 -8 0 -14 -4
-14 -10 0 -5 -7 -10 -15 -10 -8 0 -15 -8 -15 -19 0 -15 10 -20 58 -24 130 -12
178 -18 193 -22 9 -3 22 1 29 10 7 8 16 12 21 9 5 -3 9 -2 8 3 -3 18 2 34 9
29 4 -3 16 11 27 30 10 19 23 34 28 34 6 0 8 3 5 6 -4 3 3 15 13 27 11 12 28
31 38 42 10 11 33 43 52 70 19 28 37 52 42 53 4 2 7 8 7 13 0 6 9 19 20 31 11
12 20 28 20 35 0 7 5 13 11 13 5 0 7 5 4 10 -3 6 1 13 9 16 9 3 16 9 16 13 0
14 -26 8 -58 -14z"/>
<path d="M730 5001 c0 -6 -8 -8 -17 -5 -14 4 -15 3 -5 -4 8 -5 14 -13 14 -18
0 -5 5 -8 10 -6 6 2 8 -4 5 -12 -3 -8 2 -20 11 -28 15 -12 16 -11 3 5 -7 9
-11 17 -8 17 3 0 16 -15 28 -32 13 -19 17 -29 8 -23 -8 6 -7 3 3 -6 9 -9 14
-19 11 -23 -4 -3 -1 -6 5 -6 7 0 12 -6 12 -14 0 -8 10 -23 23 -33 28 -23 58
-60 39 -49 -8 5 1 -11 18 -35 18 -24 36 -43 42 -41 5 1 6 -3 2 -9 -5 -9 -2
-10 11 -5 14 5 16 4 6 -7 -8 -11 -5 -20 14 -41 14 -15 25 -32 25 -38 0 -7 4
-7 13 1 8 6 17 8 21 4 9 -10 48 -15 42 -5 -2 4 17 7 44 7 26 0 46 4 43 8 -2 4
7 5 21 1 14 -3 26 -2 26 2 0 5 24 8 52 7 29 -2 47 0 40 3 -6 3 -10 9 -7 14 3
4 -6 15 -20 24 -14 9 -25 13 -25 9 0 -5 -4 -3 -8 2 -14 22 -67 52 -81 47 -8
-2 -11 0 -8 6 4 5 -1 16 -10 23 -14 12 -16 12 -8 0 9 -16 -57 19 -95 51 l-25
20 28 -16 c15 -9 38 -23 52 -32 14 -9 25 -14 25 -11 0 9 -85 60 -100 60 -19 0
-41 17 -35 27 3 4 -1 8 -8 7 -30 -1 -47 4 -47 13 0 7 6 7 20 0 29 -15 25 -5
-6 15 -15 9 -23 12 -20 6 11 -18 -10 -13 -25 6 -12 14 -12 16 0 8 9 -5 12 -4
7 3 -4 6 -13 9 -20 6 -8 -3 -17 0 -22 7 -4 8 -3 10 4 5 7 -4 12 -5 12 -3 0 11
-106 72 -118 69 -8 -2 -11 1 -8 7 4 5 2 12 -4 16 -5 3 -10 2 -10 -4z m465
-319 c-3 -3 -11 0 -18 7 -9 10 -8 11 6 5 10 -3 15 -9 12 -12z"/>
<path d="M3409 4763 c-13 -16 -12 -17 4 -4 9 7 17 15 17 17 0 8 -8 3 -21 -13z"/>
<path d="M195 4599 c-6 -8 -2 -37 11 -112 3 -15 9 -25 12 -23 4 2 6 -13 4 -35
-3 -25 0 -39 8 -39 6 0 8 -5 5 -11 -4 -6 -1 -40 6 -77 7 -37 12 -70 11 -74 -1
-5 1 -8 6 -8 4 0 8 -23 10 -50 1 -28 8 -63 14 -78 6 -15 10 -35 9 -44 -1 -10
5 -59 14 -110 10 -51 19 -102 21 -113 2 -11 10 -47 18 -80 7 -33 22 -115 32
-182 10 -68 22 -123 27 -123 4 0 5 5 2 10 -3 6 -2 10 4 10 5 0 13 10 17 23 4
12 22 55 41 96 18 40 32 76 29 78 -2 3 7 21 20 41 14 20 22 42 20 49 -3 7 -1
13 5 13 10 0 42 65 42 88 0 6 3 12 7 12 7 0 35 71 32 83 -1 4 2 7 8 7 5 0 6 7
3 17 -4 10 -2 14 4 10 13 -8 26 20 16 36 -3 7 -3 9 2 5 10 -9 47 70 39 83 -3
5 0 9 6 9 6 0 8 5 5 11 -4 6 2 19 14 30 12 12 18 26 14 36 -4 10 -2 14 4 10 6
-4 13 0 17 8 3 8 0 15 -7 15 -7 1 -6 5 4 13 9 7 14 18 11 26 -3 8 0 11 6 7 11
-6 25 21 17 34 -3 4 2 11 11 14 9 4 14 13 10 21 -3 8 -1 15 5 15 6 0 7 5 4 10
-3 6 -1 10 5 10 6 0 9 4 6 9 -4 5 -1 11 5 13 6 2 12 15 12 30 1 14 5 24 9 22
7 -5 22 35 15 42 -2 2 -31 5 -65 7 -33 1 -55 5 -48 9 6 5 0 8 -14 7 -30 0 -79
7 -100 14 -8 3 -31 8 -50 11 -19 3 -48 8 -65 11 -16 3 -68 12 -115 21 -47 8
-103 19 -125 24 -79 17 -85 18 -90 9z"/>
<path d="M4220 4590 c-52 -9 -138 -25 -190 -35 -52 -9 -116 -19 -142 -22 -27
-3 -48 -9 -48 -12 0 -4 -19 -8 -42 -10 -23 -1 -45 -5 -48 -10 -5 -7 -21 -9
-85 -11 -19 -1 -25 -4 -16 -9 7 -5 12 -12 11 -17 -2 -17 41 -124 51 -124 5 0
8 -3 7 -7 -2 -10 8 -36 33 -89 10 -23 19 -44 19 -48 0 -4 11 -23 25 -43 13
-20 22 -40 19 -45 -3 -4 0 -8 6 -8 6 0 8 -4 5 -10 -3 -5 -2 -10 3 -10 5 0 12
-14 16 -32 3 -17 14 -40 24 -51 9 -10 16 -22 15 -26 -6 -15 19 -71 29 -65 7 4
8 2 4 -5 -4 -6 4 -32 18 -57 14 -25 42 -84 62 -132 21 -48 41 -88 46 -90 4 -2
8 -9 8 -15 0 -7 10 -32 22 -57 12 -25 22 -47 23 -50 0 -3 10 -25 22 -49 13
-27 23 -39 28 -32 4 7 4 15 1 18 -3 3 -1 12 4 19 6 6 10 16 8 20 -1 5 4 39 11
76 7 37 11 75 7 83 -3 9 -2 13 4 10 5 -3 9 3 8 12 0 10 7 46 17 81 9 35 14 70
11 77 -3 8 -1 17 4 20 5 3 8 18 8 34 -1 16 4 42 10 58 6 15 13 46 16 68 3 22
12 75 20 117 8 43 12 87 9 99 -4 14 -2 20 4 16 13 -8 23 48 16 98 -4 28 -2 36
8 30 9 -6 11 -2 7 13 -4 12 -2 22 4 22 6 0 8 10 5 22 -4 12 -2 27 3 33 5 6 13
38 19 70 5 33 12 67 15 75 9 22 -27 22 -144 0z"/>
<path d="M3150 4489 c25 -23 38 -38 30 -34 -8 3 -3 -5 13 -19 15 -14 27 -29
27 -35 0 -5 5 -13 12 -17 7 -4 8 -3 4 4 -4 7 -5 12 -1 12 3 0 10 -11 15 -25 5
-14 20 -30 32 -35 13 -5 19 -9 15 -9 -4 -1 -3 -7 2 -13 41 -52 71 -86 101
-116 19 -19 28 -32 20 -28 -8 4 -3 -4 13 -18 15 -14 27 -29 27 -35 0 -5 17
-23 38 -41 20 -17 31 -28 23 -24 -9 5 -12 3 -7 -4 4 -7 13 -12 20 -12 8 0 20
-8 27 -17 13 -17 12 -17 -6 -4 -11 8 -3 -2 18 -22 20 -20 37 -41 37 -47 0 -6
5 -8 10 -5 6 3 10 -3 10 -13 0 -11 8 -26 17 -33 14 -12 16 -12 8 0 -5 10 -4
12 4 7 6 -4 9 -11 6 -16 -3 -5 1 -12 9 -17 8 -4 15 -12 16 -18 1 -5 7 -9 13
-7 7 2 8 0 4 -4 -4 -5 8 -24 27 -44 66 -67 84 -89 78 -94 -3 -3 2 -6 12 -6 9
0 15 -4 12 -9 -3 -5 0 -11 7 -14 15 -5 16 20 3 41 -4 6 -4 12 -1 12 4 0 -1 7
-9 16 -9 8 -13 20 -10 26 4 6 2 8 -3 5 -12 -8 -26 20 -17 34 3 5 0 9 -5 9 -6
0 -11 9 -11 19 0 30 -11 52 -23 44 -6 -4 -8 0 -4 10 3 9 2 17 -3 19 -5 2 -10
10 -12 18 -2 8 -5 17 -8 20 -15 15 -60 111 -56 119 3 5 -1 12 -10 15 -9 3 -14
13 -11 20 3 8 1 16 -4 18 -5 2 -11 13 -12 26 0 12 -4 22 -8 22 -4 0 -12 15
-20 33 -7 17 -25 51 -40 73 -16 23 -26 44 -23 46 3 3 -5 22 -17 42 -11 20 -19
43 -16 50 3 8 -1 17 -9 20 -8 3 -14 13 -12 22 2 11 -5 18 -22 20 -14 2 -36 6
-50 9 -19 4 -21 3 -10 -5 8 -5 10 -10 4 -10 -6 0 -14 3 -18 8 -8 7 -21 10 -86
16 -19 2 -42 6 -50 9 -8 3 -37 8 -65 12 -27 4 -61 9 -75 11 -22 5 -19 0 20
-37z"/>
<path d="M1313 4513 c-24 -2 -43 -7 -43 -12 0 -4 -17 -7 -37 -8 -21 0 -72 -4
-113 -8 -60 -6 -79 -12 -96 -31 -12 -12 -19 -25 -16 -28 3 -3 0 -6 -7 -6 -7 0
-10 -4 -6 -9 3 -5 -1 -15 -8 -23 -8 -7 -12 -19 -9 -27 3 -9 0 -11 -8 -6 -8 5
-11 3 -8 -6 3 -8 -1 -20 -9 -27 -7 -7 -13 -22 -13 -33 0 -10 -5 -19 -11 -19
-5 0 -7 -4 -4 -10 3 -5 1 -10 -5 -10 -6 0 -9 -4 -5 -9 3 -5 1 -12 -5 -16 -6
-4 -8 -11 -5 -16 4 -5 1 -9 -5 -9 -6 0 -8 -4 -5 -10 3 -5 1 -10 -5 -10 -6 0
-8 -4 -5 -10 3 -5 1 -10 -5 -10 -6 0 -9 -4 -6 -9 8 -13 -4 -42 -15 -35 -5 3
-9 -3 -9 -13 0 -10 -7 -28 -15 -39 -8 -12 -11 -24 -8 -28 3 -3 1 -6 -6 -6 -7
0 -9 -4 -6 -10 3 -5 1 -10 -5 -10 -6 0 -9 -4 -6 -9 4 -5 3 -11 -1 -13 -7 -3
-53 -97 -101 -208 -8 -19 -18 -39 -20 -44 -3 -5 2 -7 11 -3 11 4 14 2 11 -8
-3 -8 -11 -13 -17 -11 -10 2 -9 0 6 -7 2 -1 19 16 38 37 19 22 27 36 19 31 -8
-5 9 13 38 41 29 28 49 53 46 57 -4 4 -3 7 2 7 5 0 27 21 49 47 21 26 33 43
25 39 -8 -4 8 13 35 38 28 25 46 45 40 46 -5 0 1 7 13 16 12 8 19 20 16 26 -4
6 -3 8 3 5 6 -4 19 3 29 16 19 21 19 21 -1 8 -11 -7 -3 2 18 20 20 19 37 42
37 52 0 10 4 16 9 13 5 -4 15 7 23 24 7 17 20 33 30 36 9 2 22 12 30 22 12 16
11 16 -7 2 -11 -8 8 14 43 49 34 34 59 67 56 73 -4 7 -2 8 4 4 11 -6 60 50 54
61 -2 4 3 10 12 15 16 9 23 30 9 26 -5 -1 -27 -3 -50 -5z"/>
<path d="M2756 4423 c-44 -29 -83 -59 -88 -65 -4 -7 -8 -8 -8 -3 0 6 -5 2 -11
-8 -6 -9 -14 -15 -20 -12 -5 4 -9 1 -9 -5 0 -6 -4 -9 -9 -6 -5 3 -12 -1 -15
-9 -3 -8 -11 -14 -18 -13 -7 2 -12 -2 -13 -9 0 -6 -4 -15 -9 -20 -5 -5 -6 -3
-2 5 4 6 2 12 -3 12 -6 0 -11 -4 -11 -10 0 -5 -7 -10 -15 -10 -8 0 -15 -5 -15
-11 0 -5 -4 -8 -8 -5 -11 7 -72 -31 -72 -44 0 -6 -4 -8 -10 -5 -5 3 -10 1 -10
-4 0 -6 -3 -10 -7 -10 -21 3 -33 -2 -27 -13 4 -6 3 -8 -3 -5 -5 3 -26 -5 -45
-18 -35 -24 -123 -51 -113 -35 5 8 -24 25 -37 22 -5 -1 -8 2 -8 7 0 5 -7 12
-16 15 -8 3 -12 2 -9 -4 3 -6 -1 -7 -9 -4 -9 3 -13 10 -10 15 3 5 -3 6 -12 2
-14 -5 -16 -3 -11 12 6 15 5 16 -8 5 -9 -8 -15 -8 -15 -2 0 6 -9 14 -20 17
-11 3 -20 13 -20 20 0 8 -5 17 -12 21 -7 5 -8 3 -3 -5 6 -10 3 -11 -14 -2 -11
7 -21 16 -21 21 0 5 -7 6 -17 3 -10 -4 -14 -2 -9 5 3 6 2 13 -4 17 -5 3 -10 1
-10 -6 0 -6 -11 0 -24 14 -13 14 -27 23 -30 20 -3 -3 -17 6 -30 20 -13 14 -27
23 -30 20 -3 -4 -6 -2 -6 4 0 6 -24 25 -52 43 -29 18 -65 41 -80 51 -15 11
-31 19 -35 19 -4 0 0 -5 10 -11 9 -6 15 -14 12 -19 -3 -5 4 -14 15 -20 11 -6
18 -15 15 -20 -8 -14 27 -70 38 -63 6 4 7 1 3 -6 -5 -7 0 -18 10 -26 11 -8 15
-15 10 -15 -5 0 1 -8 12 -19 12 -10 19 -21 15 -25 -3 -3 -1 -6 5 -6 6 0 9 -7
6 -15 -3 -8 0 -17 8 -20 8 -3 15 -11 15 -18 0 -17 53 -100 70 -110 7 -5 11
-12 8 -17 -5 -9 72 -143 86 -148 5 -2 9 -10 9 -17 0 -7 7 -16 16 -19 9 -3 14
-12 11 -20 -3 -8 3 -23 14 -34 10 -12 19 -26 19 -32 0 -5 5 -10 11 -10 5 0 8
-4 4 -9 -3 -5 1 -16 9 -23 7 -8 16 -23 20 -33 3 -11 17 -32 31 -47 14 -16 22
-28 18 -28 -4 0 -3 -4 2 -8 6 -4 23 -33 40 -64 19 -38 36 -58 47 -58 10 0 18
7 18 15 0 8 5 15 12 15 6 0 9 3 5 6 -3 3 3 14 14 25 10 10 19 27 19 37 0 10 9
28 20 40 12 12 17 22 13 22 -4 0 0 5 10 11 9 5 17 19 17 30 0 11 7 22 15 25 8
4 13 10 10 14 -3 4 2 11 11 14 9 4 14 13 10 21 -3 9 1 18 9 21 8 4 13 10 10
14 -3 4 2 11 11 14 9 4 14 13 10 22 -3 8 -2 13 2 10 4 -3 14 4 21 16 10 16 10
19 -1 12 -7 -4 -1 5 14 20 15 15 33 41 40 57 7 16 16 29 20 29 5 0 8 9 8 20 0
11 5 20 11 20 5 0 7 5 4 10 -3 6 -1 10 5 10 6 0 8 5 5 10 -3 6 -1 10 5 10 6 0
9 4 6 9 -3 5 1 11 9 15 8 3 15 12 15 21 0 8 5 15 11 15 5 0 8 4 4 9 -3 5 1 15
8 23 21 22 56 73 59 88 2 8 11 23 21 35 23 26 77 125 77 141 0 7 8 17 17 23
10 5 16 11 13 13 -3 2 -41 -20 -84 -49z"/>
<path d="M2916 4345 c-11 -16 -32 -50 -48 -74 -15 -25 -28 -50 -28 -58 0 -7
-3 -13 -7 -13 -8 0 -33 -48 -33 -62 0 -5 -4 -14 -10 -21 -45 -56 -56 -74 -52
-86 3 -9 0 -11 -9 -6 -8 5 -11 5 -7 0 9 -10 -19 -65 -33 -65 -6 0 -8 -4 -4 -9
3 -6 -7 -22 -22 -37 -16 -14 -22 -23 -15 -20 6 4 12 2 12 -3 0 -6 -7 -11 -15
-11 -8 0 -15 -7 -15 -15 0 -8 -5 -15 -10 -15 -6 0 -9 -3 -9 -7 4 -22 -2 -33
-13 -27 -8 5 -9 2 -5 -9 4 -10 0 -20 -11 -26 -9 -6 -13 -11 -8 -11 5 0 2 -8
-7 -18 -9 -10 -23 -34 -32 -55 -8 -20 -20 -37 -26 -37 -8 0 -7 -5 1 -16 11
-12 11 -14 1 -12 -7 2 -21 -11 -30 -29 -10 -18 -31 -49 -46 -69 -16 -21 -23
-34 -17 -30 19 12 14 -1 -11 -26 -13 -13 -22 -29 -19 -36 2 -7 0 -12 -5 -12
-5 0 -21 -18 -36 -40 -26 -40 -28 -77 -6 -90 6 -4 11 -11 11 -16 2 -22 21 -64
30 -64 5 0 7 -4 4 -9 -3 -4 3 -19 14 -31 11 -12 17 -26 15 -30 -3 -5 -1 -10 5
-12 6 -2 12 -14 15 -27 2 -13 20 -51 40 -83 19 -33 35 -66 35 -74 0 -8 3 -14
8 -14 4 0 20 -29 36 -64 17 -36 33 -63 37 -61 4 3 6 -1 5 -8 -1 -15 83 -180
96 -188 5 -3 9 -9 9 -13 -3 -14 42 -106 52 -106 6 0 7 -3 4 -7 -4 -3 1 -15 10
-25 16 -18 18 -15 55 58 22 42 37 83 34 91 -3 8 -2 11 3 8 5 -3 13 5 17 17 4
13 10 25 15 28 4 3 9 12 11 20 2 8 9 21 16 28 6 7 12 22 12 33 0 10 4 19 8 19
10 0 48 91 44 105 -2 5 0 7 4 2 4 -4 32 40 61 98 l53 106 -5 86 c-3 48 -9 91
-14 96 -5 5 -7 15 -4 23 3 7 0 28 -6 46 -6 18 -11 56 -12 83 -1 63 -19 225
-26 245 -6 17 -12 72 -12 113 -1 15 -4 27 -8 27 -5 0 -7 32 -6 70 1 39 -2 68
-6 65 -5 -2 -12 2 -15 11 -9 24 -7 31 5 14 9 -12 9 -11 4 5 -4 11 -7 42 -6 68
1 27 -2 47 -6 44 -4 -3 -8 7 -9 21 -3 89 -17 202 -24 202 -5 0 -10 17 -12 38
l-3 37 -19 -30z"/>
<path d="M1307 4234 c-54 -63 -95 -119 -92 -124 4 -6 1 -9 -7 -8 -7 2 -12 -3
-11 -9 2 -7 -3 -12 -10 -10 -6 1 -11 -4 -10 -10 2 -7 -1 -13 -6 -13 -5 0 -13
-9 -16 -20 -4 -11 -11 -18 -16 -15 -5 4 -12 -2 -16 -11 -4 -10 -21 -31 -40
-47 -18 -16 -31 -32 -30 -35 1 -4 -19 -29 -45 -57 -27 -27 -48 -55 -48 -61 0
-7 -11 -19 -25 -28 -14 -9 -25 -21 -25 -27 0 -5 -17 -26 -37 -46 -21 -20 -31
-31 -21 -24 13 9 18 9 24 0 4 -7 3 -10 -2 -6 -5 3 -25 -8 -44 -25 -19 -16 -28
-27 -20 -23 8 4 -2 -9 -22 -29 -21 -20 -34 -36 -30 -36 4 0 -1 -5 -11 -11 -9
-6 -14 -15 -11 -21 4 -7 2 -8 -5 -4 -6 4 -14 0 -18 -11 -3 -10 -13 -26 -20
-35 -8 -9 -12 -22 -7 -29 4 -7 3 -10 -3 -6 -11 7 -85 -61 -155 -143 -47 -54
-47 -55 -25 -66 19 -10 177 -28 362 -41 33 -2 136 -10 230 -18 136 -12 171
-13 181 -3 7 8 14 52 17 103 3 50 12 140 21 200 9 61 18 137 21 170 3 33 9 83
15 110 8 46 22 199 24 272 1 17 5 29 9 26 4 -2 6 18 4 46 -2 28 -1 48 4 46 9
-6 19 79 17 148 0 26 -1 47 -2 47 -1 -1 -45 -52 -99 -116z m-207 -267 c0 -2
-10 -12 -22 -23 l-23 -19 19 23 c18 21 26 27 26 19z"/>
<path d="M1564 4325 c-10 -15 -20 -62 -26 -113 -5 -48 -13 -115 -19 -148 -6
-34 -9 -77 -8 -95 2 -19 -2 -43 -8 -54 -10 -19 -28 -223 -25 -293 0 -21 -3
-30 -10 -26 -7 5 -9 0 -5 -15 3 -11 -1 -47 -8 -79 -8 -32 -15 -86 -16 -120 -1
-34 -8 -90 -15 -124 -21 -100 -18 -147 16 -216 17 -34 30 -67 30 -72 0 -6 4
-10 10 -10 5 0 9 -3 8 -7 -4 -14 13 -53 23 -53 5 0 9 -3 8 -7 -2 -16 14 -53
23 -53 5 0 7 -4 4 -8 -2 -4 6 -28 20 -52 13 -25 29 -57 35 -72 6 -16 14 -28
18 -28 4 0 7 -9 8 -20 1 -11 10 -33 20 -48 10 -15 30 -52 43 -82 13 -30 26
-57 28 -60 6 -9 42 42 36 51 -3 5 -2 9 3 9 9 0 39 61 35 73 -1 4 3 7 10 7 6 0
8 3 5 7 -4 3 1 12 11 20 9 8 11 11 3 7 -9 -4 -12 -2 -9 7 3 8 10 13 16 12 6
-2 9 4 6 12 -4 8 1 17 10 21 9 3 13 10 10 15 -3 5 0 9 7 9 7 0 10 3 6 6 -3 4
1 13 9 21 8 9 13 22 10 30 -3 8 -2 12 3 9 5 -3 12 1 15 10 4 10 2 13 -7 7 -6
-4 3 12 21 35 20 25 30 47 26 54 -4 7 -4 10 1 6 7 -7 63 89 68 116 1 6 8 17
15 24 7 8 10 18 7 23 -4 5 -1 9 5 9 6 0 8 5 5 10 -3 6 -1 10 6 10 7 0 9 3 6 7
-4 3 0 11 8 17 9 6 18 24 21 41 3 16 13 38 22 48 9 10 17 24 18 32 1 8 9 22
18 31 20 20 21 31 1 14 -13 -11 -14 -10 -9 4 3 9 12 16 20 16 13 0 19 14 14
35 -1 6 -3 16 -3 23 0 6 -4 12 -9 12 -5 0 -6 6 -2 13 6 9 5 9 -7 0 -13 -11
-15 -9 -14 10 3 29 -5 48 -16 41 -5 -3 -9 5 -9 18 0 17 -3 19 -9 9 -7 -10 -10
-6 -15 16 -4 16 -18 41 -31 56 -14 14 -25 31 -25 37 0 5 -4 10 -9 10 -5 0 -12
15 -16 33 -4 17 -9 35 -10 40 -1 4 -3 12 -4 18 0 5 -5 7 -11 4 -9 -6 -15 8
-11 29 1 5 -5 6 -14 2 -9 -3 -13 -2 -10 4 3 5 -1 20 -10 33 -8 13 -12 27 -8
32 5 4 2 5 -5 1 -7 -4 -9 -13 -5 -19 4 -7 0 -6 -10 2 -9 7 -17 24 -17 37 0 12
-9 29 -19 36 -13 9 -17 19 -11 27 5 9 0 23 -16 40 -13 14 -24 29 -24 34 0 4
-6 5 -12 1 -9 -5 -9 -2 1 9 9 12 10 17 2 17 -7 0 -9 5 -5 12 4 7 3 8 -4 4 -7
-4 -17 7 -26 29 -8 19 -19 35 -24 35 -6 0 -13 7 -16 16 -4 10 -2 13 6 8 6 -4
3 4 -8 18 -10 14 -22 24 -26 21 -4 -2 -5 3 -2 11 3 8 2 21 -2 28 -5 7 -9 16
-9 21 0 4 -4 8 -10 8 -15 2 -37 38 -30 48 3 6 -5 19 -17 30 -12 12 -18 21 -12
21 5 0 1 5 -8 11 -10 5 -18 17 -18 25 0 8 -4 13 -9 10 -5 -4 -7 3 -4 14 7 27
-3 25 -23 -5z"/>
<path d="M3080 4340 c0 -5 3 -10 8 -10 4 0 7 -26 8 -57 1 -32 6 -98 13 -148 6
-49 14 -118 17 -152 4 -35 9 -63 13 -63 3 0 7 -16 8 -35 2 -50 4 -63 14 -130
11 -79 16 -130 25 -245 3 -52 10 -100 15 -106 6 -7 9 -16 8 -20 -1 -5 -1 -11
0 -14 1 -3 3 -39 6 -81 5 -88 13 -129 26 -129 5 0 9 3 9 8 0 4 18 6 40 4 22
-2 48 -1 58 3 9 4 37 7 63 6 25 -1 92 2 150 8 57 6 189 15 293 21 105 5 194
14 199 19 7 7 -4 24 -29 48 -21 21 -38 42 -39 46 0 14 -37 37 -49 30 -6 -3 -8
-2 -3 2 4 5 -1 18 -10 29 -17 20 -17 20 2 6 15 -11 14 -7 -4 13 -26 29 -36 35
-26 15 4 -7 -1 -4 -10 7 -9 11 -21 19 -26 17 -6 -1 -8 2 -5 7 4 5 -7 24 -24
41 -18 18 -27 36 -23 43 5 9 3 8 -9 0 -15 -13 -28 -8 -28 11 0 6 5 4 10 -4 5
-8 10 -10 10 -5 0 17 -59 77 -69 70 -6 -3 -8 4 -6 16 4 18 2 19 -12 7 -10 -8
-14 -8 -10 -1 4 6 2 15 -4 18 -5 4 -8 13 -5 21 5 13 -6 19 -28 15 -5 -1 -3 6
5 15 8 10 9 15 2 11 -6 -4 -28 13 -53 43 -23 27 -39 50 -35 50 4 0 2 7 -5 15
-7 9 -20 13 -29 10 -8 -3 -12 -3 -8 1 4 4 -12 28 -36 53 -52 57 -99 117 -100
128 0 4 -12 17 -26 28 -14 11 -33 29 -41 40 -25 35 -84 90 -93 87 -5 -1 -6 2
-2 8 8 13 -19 52 -30 42 -5 -4 -5 -2 -1 5 3 6 -5 23 -18 36 -14 14 -22 28 -19
31 4 3 -1 6 -11 6 -9 0 -15 4 -11 9 3 6 -4 15 -15 21 -11 6 -18 15 -15 19 3 5
-2 12 -11 15 -21 8 -24 8 -24 -4z"/>
<path d="M653 3673 c4 -3 1 -13 -6 -22 -11 -14 -10 -14 5 -2 16 12 16 31 1 31
-4 0 -3 -3 0 -7z"/>
<path d="M461 3121 c-12 -8 8 -119 79 -451 11 -52 25 -122 30 -155 6 -33 14
-78 19 -100 5 -22 26 -116 46 -210 21 -93 42 -189 49 -212 l11 -42 50 35 c28
19 80 50 116 70 37 19 76 44 88 55 11 11 21 17 21 14 0 -8 94 47 98 57 2 4 10
8 17 8 8 0 24 10 36 23 12 12 19 15 15 7 -4 -8 0 -6 8 4 9 11 16 16 16 11 0
-5 7 0 16 11 8 10 12 13 9 6 -6 -11 -3 -11 14 0 12 7 21 16 21 21 0 4 5 5 10
2 6 -3 13 1 16 9 3 9 10 13 15 10 5 -3 9 -1 9 4 0 6 14 15 31 21 20 7 28 15
23 22 -5 9 -2 10 10 6 12 -5 8 6 -14 33 -27 33 -50 45 -50 24 0 -3 4 -3 9 1 5
3 12 1 15 -4 4 -5 -2 -8 -11 -7 -13 2 -17 10 -15 27 3 19 2 21 -11 11 -12 -10
-14 -8 -13 10 1 14 -4 22 -12 20 -7 -1 -15 5 -18 13 -3 8 -10 13 -14 10 -5 -3
-6 3 -3 13 2 10 -5 26 -18 37 -12 11 -19 14 -15 8 4 -7 3 -13 -3 -13 -6 0 -15
9 -21 20 -6 11 -15 18 -21 15 -5 -4 -8 -3 -7 2 5 14 -39 64 -53 61 -7 -2 -13
2 -14 9 0 7 -8 21 -17 32 -12 14 -13 21 -5 25 7 2 4 5 -5 5 -10 1 -18 6 -18
12 0 5 -4 8 -9 4 -5 -3 -12 -1 -16 5 -4 6 -11 7 -17 4 -7 -4 -8 -2 -4 5 4 6
12 8 18 5 7 -4 8 -2 4 4 -4 7 -13 12 -21 12 -18 0 -12 31 8 44 12 8 26 7 49
-2 43 -17 187 -63 213 -68 11 -2 47 -13 80 -24 110 -38 154 -49 160 -40 8 13
-31 87 -52 99 -14 9 -15 12 -5 19 11 8 11 10 -1 15 -8 3 -18 19 -22 36 -4 17
-11 29 -16 25 -5 -3 -9 6 -9 20 0 14 -5 28 -10 31 -6 4 -7 11 -4 17 4 7 2 8
-4 4 -13 -8 -36 40 -26 55 3 5 1 9 -3 9 -5 0 -14 14 -20 30 -7 20 -18 30 -32
30 -11 0 -22 4 -25 9 -3 4 -54 11 -113 15 -60 4 -151 11 -203 16 -82 8 -238
22 -401 35 -25 2 -51 0 -58 -4z m724 -601 c3 -5 1 -10 -4 -10 -6 0 -11 5 -11
10 0 6 2 10 4 10 3 0 8 -4 11 -10z"/>
<path d="M3930 3100 c-234 -16 -270 -18 -382 -25 -65 -4 -116 -11 -113 -14 2
-4 -20 -6 -48 -5 -72 3 -168 -7 -161 -17 3 -5 0 -9 -6 -9 -6 0 -8 -5 -4 -12 4
-6 -1 -17 -10 -24 -10 -7 -17 -15 -16 -18 2 -10 -33 -86 -40 -86 -3 0 -6 -9
-7 -19 -1 -11 -18 -45 -37 -75 -20 -31 -33 -56 -29 -56 3 0 -1 -8 -10 -17 -8
-10 -19 -31 -23 -48 -4 -16 -11 -35 -16 -42 -7 -8 -3 -10 14 -6 13 3 28 10 34
14 6 5 14 6 17 2 4 -3 7 -2 7 3 0 5 12 11 28 12 25 2 75 15 112 29 8 3 22 7
30 9 8 2 69 19 134 39 66 19 125 35 131 35 7 0 15 -11 17 -25 4 -16 1 -25 -8
-25 -7 0 -19 -8 -26 -17 -7 -10 -22 -23 -33 -30 -11 -6 -18 -17 -17 -25 2 -7
0 -10 -4 -5 -9 9 -54 -32 -54 -49 0 -7 -5 -16 -12 -20 -7 -5 -8 -2 -3 7 4 8
-3 3 -17 -11 -21 -22 -40 -53 -42 -72 -1 -3 -4 -9 -8 -13 -9 -9 -4 17 7 35 5
9 -1 7 -14 -4 -12 -11 -20 -25 -17 -32 3 -8 0 -11 -8 -8 -11 4 -54 -33 -48
-42 1 -2 0 -4 -3 -4 -9 0 -77 -65 -87 -84 -6 -12 -6 -16 0 -12 5 3 15 -1 22
-9 7 -8 19 -15 26 -15 8 0 14 -4 14 -10 0 -5 6 -10 14 -10 7 0 19 -7 26 -15 7
-8 21 -15 32 -15 10 0 16 -4 13 -10 -3 -5 1 -10 9 -10 9 0 16 -5 16 -12 0 -6
3 -9 6 -6 3 3 42 -18 87 -48 45 -30 88 -54 95 -54 6 0 12 -5 12 -11 0 -5 4 -8
9 -5 5 3 12 -1 15 -10 4 -9 9 -14 12 -11 3 3 14 -3 25 -14 11 -11 24 -17 29
-14 6 4 10 2 10 -3 0 -10 50 -37 63 -34 4 1 10 -5 13 -13 3 -8 10 -13 14 -10
5 3 14 -1 22 -8 7 -7 35 -25 63 -40 27 -16 46 -25 42 -21 -4 4 -1 14 5 22 7 8
12 40 13 72 0 32 3 53 7 47 8 -12 11 2 11 53 0 14 5 28 11 32 7 5 6 8 -3 8
-11 0 -10 4 4 20 9 10 15 26 12 34 -3 8 -2 16 3 18 5 2 11 21 14 43 3 22 14
82 26 134 11 52 18 97 15 99 -3 3 0 11 6 19 6 7 9 22 6 33 -3 12 -1 18 5 14 7
-5 9 4 6 25 -2 17 0 31 5 31 5 0 7 9 4 20 -3 11 -1 20 5 20 6 0 8 13 6 29 -2
17 -1 28 4 25 8 -5 13 29 10 74 0 12 2 20 7 18 10 -6 34 131 25 145 -5 8 -3 9
6 4 10 -6 11 -2 7 17 -4 14 -4 28 0 32 4 3 8 16 9 29 1 12 4 31 6 42 4 24 -4
25 -152 15z"/>
<path d="M2105 2902 c-27 -53 -47 -104 -46 -112 2 -8 -1 -12 -5 -8 -4 5 -25
-29 -46 -75 -22 -45 -43 -83 -48 -85 -5 -2 -6 -10 -3 -19 4 -11 2 -14 -5 -9
-7 4 -10 2 -7 -7 3 -7 -3 -21 -14 -31 -11 -10 -17 -25 -14 -34 5 -11 3 -13 -7
-7 -8 5 -11 4 -7 -3 9 -14 -34 -93 -46 -85 -6 4 -7 1 -3 -6 5 -7 1 -20 -7 -29
-36 -42 -45 -75 -35 -132 6 -30 13 -62 15 -70 3 -8 7 -27 8 -42 8 -88 18 -138
26 -143 5 -4 9 -34 9 -68 0 -47 3 -58 11 -47 9 13 10 12 5 -2 -3 -10 2 -59 10
-110 9 -51 18 -104 19 -118 2 -14 8 -43 14 -65 9 -38 31 -168 36 -217 1 -13 3
-23 4 -23 2 0 4 -13 5 -30 4 -47 27 -169 32 -174 9 -10 139 -12 152 -3 16 11
23 1825 7 1841 -7 7 -26 -20 -60 -87z"/>
<path d="M2326 2072 l3 -927 71 -5 c100 -7 119 15 124 139 0 22 4 42 8 46 3 3
4 20 1 37 -2 17 0 34 6 37 6 4 13 34 16 66 3 33 10 64 14 70 4 5 8 33 7 62 -1
28 2 49 5 47 9 -5 20 86 12 99 -3 6 -1 7 5 3 8 -5 12 3 12 26 0 71 2 88 11 82
8 -4 15 53 10 80 -1 5 2 12 8 15 5 4 12 38 14 76 2 39 7 78 11 87 4 9 5 21 2
27 -4 5 -2 12 3 16 10 6 12 18 12 78 0 20 5 37 10 37 6 0 5 8 -1 21 -7 11 -9
28 -6 36 5 13 4 14 -9 3 -9 -8 -15 -8 -15 -2 0 6 4 14 10 17 10 6 -14 53 -35
67 -5 4 -6 8 -1 8 6 0 2 6 -9 13 -11 9 -15 19 -10 27 6 10 4 12 -7 7 -12 -4
-15 0 -13 19 1 13 -2 24 -7 24 -5 0 -7 4 -4 9 3 5 -1 14 -9 21 -8 7 -13 16
-10 20 3 4 -2 11 -11 14 -9 4 -14 13 -10 22 3 8 2 12 -4 9 -6 -3 -10 1 -10 10
0 10 -5 13 -12 9 -8 -5 -7 0 2 11 12 15 12 17 1 10 -11 -6 -13 -4 -8 8 3 10 3
17 -2 17 -5 0 -11 8 -15 18 -3 9 -14 31 -23 47 -10 17 -19 37 -21 45 -2 8 -11
23 -19 33 -9 9 -13 17 -10 17 4 0 -1 9 -11 20 -17 20 -18 24 -21 56 0 9 -6 12
-13 8 -6 -4 -8 -3 -5 4 9 14 -3 43 -14 36 -5 -3 -6 2 -3 10 3 8 -3 19 -14 25
-19 10 -19 -3 -16 -917z"/>
<path d="M1450 2250 c12 -9 10 -11 -12 -7 -16 2 -28 0 -28 -5 0 -5 -4 -6 -10
-3 -5 3 -10 1 -10 -4 0 -6 -6 -10 -12 -8 -7 1 -12 -4 -10 -10 1 -7 -1 -12 -5
-11 -15 4 -53 -13 -53 -23 0 -6 -4 -7 -10 -4 -5 3 -10 1 -10 -4 0 -6 -3 -10
-7 -9 -10 3 -93 -40 -93 -48 0 -3 5 -2 12 2 7 4 8 3 4 -4 -4 -6 -14 -8 -23 -5
-12 5 -14 3 -8 -7 5 -8 4 -11 -3 -7 -15 10 -43 -3 -35 -17 3 -6 3 -8 -2 -4 -9
9 -65 -19 -65 -32 0 -6 -3 -9 -7 -9 -20 3 -34 -2 -28 -11 3 -5 -3 -10 -14 -10
-12 0 -21 -5 -21 -11 0 -5 -4 -8 -10 -4 -5 3 -18 -3 -29 -14 -11 -11 -22 -17
-25 -14 -3 4 -6 1 -6 -5 0 -7 -7 -12 -15 -12 -8 0 -23 -8 -33 -17 -10 -10 -25
-19 -33 -21 -22 -5 -41 -24 -32 -32 4 -4 40 -17 78 -30 39 -12 79 -26 90 -31
11 -4 58 -20 105 -34 47 -15 92 -30 100 -34 8 -4 49 -18 90 -31 41 -12 78 -24
82 -27 11 -6 50 76 42 89 -4 7 -3 8 4 4 7 -4 12 -2 12 3 0 18 3 26 17 39 7 8
11 18 8 23 -4 5 -2 9 4 9 6 0 7 7 4 17 -4 10 -2 14 4 10 11 -7 43 54 43 84 0
11 7 22 15 25 8 4 13 10 10 14 -7 12 6 41 15 35 4 -3 11 2 14 11 3 8 2 12 -3
9 -5 -3 -13 -1 -16 5 -4 6 -3 10 2 9 17 -3 36 1 30 7 -3 3 8 28 24 56 16 27
27 53 24 58 -3 4 0 10 6 12 7 2 -24 11 -67 20 -43 8 -88 19 -99 23 -17 6 -17
5 -5 -5z"/>
<path d="M2947 2225 c-32 -7 -61 -15 -64 -19 -4 -4 11 -44 34 -89 23 -45 65
-131 94 -192 29 -60 57 -113 63 -117 6 -4 8 -8 4 -8 -4 0 7 -26 23 -57 16 -32
29 -62 29 -68 0 -5 11 -11 25 -11 14 -1 25 2 25 7 0 5 3 8 8 7 15 -3 82 15 88
23 3 5 16 9 30 9 14 0 22 4 19 10 -3 6 1 7 9 4 9 -3 66 10 128 30 62 19 145
45 183 57 72 22 103 39 72 39 -10 0 -27 9 -39 20 -12 11 -32 20 -45 20 -12 0
-27 9 -33 20 -6 11 -15 18 -21 15 -5 -4 -9 -1 -9 6 0 8 -4 8 -16 -1 -8 -8 -14
-9 -13 -4 4 20 -2 35 -11 29 -13 -8 -52 14 -45 26 4 5 3 9 -2 8 -20 -3 -34 2
-28 11 3 5 -6 12 -20 16 -14 3 -25 10 -25 14 0 4 -22 17 -50 29 -27 12 -50 26
-50 32 0 6 -5 7 -10 4 -6 -3 -13 0 -16 9 -3 8 -12 17 -20 20 -10 4 -13 1 -9
-7 4 -6 -3 -1 -15 13 -12 14 -19 18 -15 10 4 -8 0 -7 -9 4 -8 10 -19 15 -24
12 -5 -3 -26 10 -47 29 -20 19 -41 33 -46 30 -5 -4 -9 0 -9 9 0 18 -58 18
-143 1z"/>
<path d="M1690 2055 c-6 -14 -15 -37 -22 -52 -6 -16 -11 -31 -10 -35 1 -5 -3
-8 -9 -8 -5 0 -8 -4 -5 -9 3 -5 0 -11 -7 -14 -7 -3 -20 -24 -27 -48 -8 -24
-25 -63 -37 -87 -13 -24 -23 -49 -23 -57 0 -7 -6 -20 -13 -27 -13 -13 -31 -52
-25 -54 2 -1 -4 -10 -13 -20 -16 -20 -18 -113 -5 -249 7 -70 10 -104 26 -330
6 -93 15 -181 19 -194 l7 -23 31 30 c18 16 35 27 37 24 3 -3 8 3 12 12 3 9 12
16 19 16 8 0 23 14 35 30 12 17 25 28 30 25 5 -3 14 4 20 15 6 11 14 19 18 17
8 -2 27 12 70 53 15 14 31 25 36 25 13 0 15 44 4 80 -5 17 -13 57 -18 90 -6
33 -13 71 -15 85 -3 14 -8 52 -11 84 -3 33 -8 65 -12 70 -4 6 -7 20 -8 31 -3
84 -5 96 -14 90 -6 -4 -10 16 -10 53 0 32 -3 62 -7 66 -8 8 -12 25 -18 86 -3
25 -8 59 -12 75 -7 32 -8 46 -11 115 -2 35 -5 42 -13 30 -9 -12 -10 -11 -6 8
7 30 -1 28 -13 -3z"/>
<path d="M2781 2002 c-6 -20 -12 -56 -14 -79 -2 -23 -6 -46 -10 -49 -4 -4 -7
-21 -7 -37 0 -17 -4 -44 -9 -61 -5 -17 -15 -71 -21 -121 -6 -49 -14 -103 -17
-120 -3 -16 -5 -39 -6 -50 0 -11 -4 -22 -8 -25 -4 -3 -9 -29 -10 -58 -2 -28
-5 -52 -9 -52 -3 0 -7 -16 -7 -37 -1 -20 -9 -75 -19 -121 -14 -66 -15 -87 -6
-90 7 -2 34 -24 60 -48 26 -24 52 -44 59 -44 7 0 17 -9 23 -20 12 -23 113
-100 131 -100 7 0 9 -3 6 -7 -4 -3 -2 -12 4 -20 10 -11 15 -11 27 -1 13 11 14
11 7 -2 -5 -11 -5 -12 3 -5 6 6 12 28 14 50 2 22 7 46 11 52 7 11 9 58 8 183
0 41 2 51 10 40 7 -11 9 14 6 87 -2 56 -1 101 2 98 4 -2 5 13 3 33 -2 24 0 32
6 24 5 -8 9 24 11 84 2 80 0 96 -12 91 -10 -4 -13 2 -11 19 1 13 -1 24 -6 24
-9 0 -39 61 -45 92 -3 12 -10 25 -16 29 -7 4 -13 15 -15 26 -4 30 -16 63 -23
63 -3 0 -12 9 -19 21 -11 17 -11 20 0 13 7 -4 5 2 -5 13 -9 11 -14 23 -10 26
3 4 1 7 -5 7 -7 0 -11 3 -10 8 4 11 -26 72 -35 72 -5 0 -6 4 -3 9 3 5 -1 11
-9 15 -10 4 -17 -6 -24 -32z"/>
<path d="M1794 897 c-31 -33 -73 -67 -83 -67 -5 0 -23 -13 -41 -30 -18 -16
-35 -30 -39 -30 -14 -1 -51 -39 -51 -54 0 -8 35 -77 77 -153 42 -76 86 -155
97 -176 20 -37 22 -38 66 -33 25 3 102 10 173 15 156 13 179 23 184 81 3 33 1
40 -9 34 -11 -6 -11 -5 0 8 10 13 8 18 -12 32 -14 9 -34 17 -45 19 -11 2 -29
11 -41 22 -11 10 -20 15 -20 11 0 -4 -10 2 -22 14 -12 11 -25 20 -30 20 -17 0
-7 21 26 52 30 28 33 35 24 60 -6 15 -14 28 -19 28 -4 0 -5 7 -2 17 4 11 3 14
-5 9 -7 -4 -12 -2 -12 3 0 18 -19 12 -55 -16 -18 -15 -39 -28 -47 -29 -7 -1
-25 -5 -40 -9 l-26 -7 1 98 c2 81 -1 99 -13 100 -8 1 -24 -8 -36 -19z"/>
<path d="M2650 810 l5 -100 -27 0 c-15 0 -42 9 -60 20 -18 11 -39 20 -47 20
-8 0 -23 8 -34 18 -11 9 -17 12 -14 5 4 -6 0 -18 -8 -27 -28 -28 -30 -95 -2
-73 7 5 34 -29 39 -50 4 -17 2 -20 -10 -16 -11 5 -13 3 -7 -8 4 -8 5 -11 0 -7
-4 4 -19 -1 -33 -12 -13 -11 -28 -17 -33 -14 -5 3 -9 0 -9 -5 0 -6 -3 -10 -7
-9 -5 1 -18 -3 -29 -10 -12 -6 -25 -8 -29 -4 -5 4 -5 2 -2 -4 4 -7 0 -14 -8
-18 -19 -7 -21 -109 -2 -124 6 -5 41 -13 77 -17 36 -5 74 -9 85 -11 193 -29
250 -33 250 -18 0 6 8 18 18 28 16 16 21 30 18 49 0 4 3 7 9 7 5 0 10 5 10 11
0 5 11 26 25 46 13 20 22 40 19 45 -3 4 -1 8 5 8 5 0 21 22 35 50 14 28 23 50
20 50 -2 0 2 11 11 23 14 22 14 25 -5 42 -11 10 -20 14 -20 9 0 -5 -10 2 -21
16 -11 14 -18 18 -14 10 4 -8 -10 3 -32 26 -22 22 -47 40 -56 38 -9 -1 -14 2
-11 7 7 12 -15 41 -26 34 -5 -3 -11 4 -15 15 -4 11 -10 18 -14 15 -5 -2 -16 4
-26 15 -10 11 -21 20 -24 20 -3 0 -4 -45 -1 -100z"/>
<path d="M2030 260 c-28 -3 -40 -8 -32 -13 6 -5 17 -5 22 -2 6 3 10 2 10 -3 0
-17 209 -132 238 -132 20 0 174 78 183 92 3 5 9 9 13 9 20 -3 26 1 26 17 0 16
-15 20 -122 31 -119 12 -245 12 -338 1z"/>
<path d="M2500 246 c0 -2 7 -7 16 -10 8 -3 12 -2 9 4 -6 10 -25 14 -25 6z"/>
</g>
</svg>
